<?xml version="1.0" encoding="utf-8" standalone="no"?><!DOCTYPE svg PUBLIC "-//W3C//DTD SVG 20010904//EN" "http://www.w3.org/TR/2001/REC-SVG-20010904/DTD/svg10.dtd"><svg xmlns="http://www.w3.org/2000/svg" width="1046" height="969" xmlns:xlink="http://www.w3.org/1999/xlink"><source><![CDATA[participant importData
participant unitest
participant algorithm
participant core
Note over unitest: importdata load = new importdata
unitest->importData:load.read(src)  // read file 
importData->unitest: return data as double array 

Note over unitest: algorithm.newton lr = null
unitest->algorithm:lr.fit(x, y, *arg)

Note right of core: class core\n+sigmoid\n+sigmoid_prime\n+hessian\n+log_likelihood\n+linspace\n+ones
Note right of core: class Matrix\n/plus\n/sub\n/dot\n/transpose\n/diagflat\n/element_dot\n/element_divide\n/inv\n/determinant\n/minor\n/abs
core->algorithm: algorithm extends core
Note over algorithm: use of\nMAP and Newton method\nto estimate weight parameter
algorithm->unitest: return weight parameter



]]></source><desc></desc><defs><marker viewBox="0 0 5 5" markerWidth="5" markerHeight="5" orient="auto" refX="5" refY="2.5" id="markerArrowBlock"><path d="M 0 0 L 5 2.5 L 0 5 z"></path></marker><marker viewBox="0 0 9.6 16" markerWidth="4" markerHeight="16" orient="auto" refX="9.6" refY="8" id="markerArrowOpen"><path d="M 9.6,8 1.92,16 0,13.7 5.76,8 0,2.286 1.92,0 9.6,8 z"></path></marker></defs><g class="title"></g><g class="actor"><path d="M10,20C50.2,24.9 41.8,15.1 132.8,20.0C134.5,37.2 131.1,39.1 132.8,63.2C110.7,68.1 43.8,58.3 10.0,63.2C8.3,45.8 11.7,48.7 10.0,20.0" stroke="#000000" fill="#ffffff" style="stroke-width: 2;"></path><text x="20" y="44.7890625" style="font-size: 16px; font-family: danielbd;"><tspan x="20">importData</tspan></text></g><g class="actor"><path d="M10,906.703125C39.5,901.8 103.3,911.6 132.8,906.7C131.1,926.6 134.5,917.1 132.8,949.9C39.5,954.8 29.6,945.0 10.0,949.9C11.7,913.6 8.3,917.1 10.0,906.7" stroke="#000000" fill="#ffffff" style="stroke-width: 2;"></path><text x="20" y="931.4921875" style="font-size: 16px; font-family: danielbd;"><tspan x="20">importData</tspan></text></g><path d="M71.4,63.2C105.1,437.9 37.7,347.7 71.4,906.7" stroke="#000000" fill="none" style="stroke-width: 2;"></path><g class="actor"><path d="M297.8203125,20C328.8,16.9 363.8,23.1 376.4,20.0C374.7,56.3 378.1,26.9 376.4,63.2C324.8,60.0 349.2,66.3 297.8,63.2C296.1,32.2 299.5,32.1 297.8,20.0" stroke="#000000" fill="#ffffff" style="stroke-width: 2;"></path><text x="307.8203125" y="46.390625" style="font-size: 16px; font-family: danielbd;"><tspan x="307.8203125">unitest</tspan></text></g><g class="actor"><path d="M297.8203125,906.703125C344.9,909.8 326.7,903.6 376.4,906.7C374.7,919.2 378.1,913.6 376.4,949.9C363.8,953.0 357.5,946.7 297.8,949.9C296.1,936.0 299.5,935.4 297.8,906.7" stroke="#000000" fill="#ffffff" style="stroke-width: 2;"></path><text x="307.8203125" y="933.09375" style="font-size: 16px; font-family: danielbd;"><tspan x="307.8203125">unitest</tspan></text></g><path d="M337.1,63.2C303.4,771.7 370.8,631.8 337.1,906.7" stroke="#000000" fill="none" style="stroke-width: 2;"></path><g class="actor"><path d="M524.6953125,20C609.8,15.9 601.7,24.1 626.0,20.0C624.3,52.8 627.7,51.4 626.0,63.2C594.2,59.1 582.7,67.2 524.7,63.2C526.4,34.4 523.0,30.7 524.7,20.0" stroke="#000000" fill="#ffffff" style="stroke-width: 2;"></path><text x="534.6953125" y="44.390625" style="font-size: 16px; font-family: danielbd;"><tspan x="534.6953125">algorithm</tspan></text></g><g class="actor"><path d="M524.6953125,906.703125C592.2,902.7 575.8,910.8 626.0,906.7C627.7,913.6 624.3,917.2 626.0,949.9C540.9,953.9 583.9,945.8 524.7,949.9C523.0,913.6 526.4,917.1 524.7,906.7" stroke="#000000" fill="#ffffff" style="stroke-width: 2;"></path><text x="534.6953125" y="931.09375" style="font-size: 16px; font-family: danielbd;"><tspan x="534.6953125">algorithm</tspan></text></g><path d="M575.4,63.2C541.6,260.9 609.1,734.5 575.4,906.7" stroke="#000000" fill="none" style="stroke-width: 2;"></path><g class="actor"><path d="M764.578125,20C782.3,22.3 807.3,17.7 821.2,20.0C819.5,26.9 822.9,38.9 821.2,63.2C807.6,60.9 791.1,65.5 764.6,63.2C762.9,26.9 766.3,39.7 764.6,20.0" stroke="#000000" fill="#ffffff" style="stroke-width: 2;"></path><text x="774.578125" y="46.390625" style="font-size: 16px; font-family: danielbd;"><tspan x="774.578125">core</tspan></text></g><g class="actor"><path d="M764.578125,906.703125C809.7,909.0 773.6,904.4 821.2,906.7C822.9,920.6 819.5,940.1 821.2,949.9C802.7,952.2 778.2,947.6 764.6,949.9C766.3,939.5 762.9,917.1 764.6,906.7" stroke="#000000" fill="#ffffff" style="stroke-width: 2;"></path><text x="774.578125" y="933.09375" style="font-size: 16px; font-family: danielbd;"><tspan x="774.578125">core</tspan></text></g><path d="M792.9,63.2C826.6,744.6 759.2,704.3 792.9,906.7" stroke="#000000" fill="none" style="stroke-width: 2;"></path><g class="note"><path d="M181.1796875,83.1875C404.8,70.7 256.0,95.7 493.0,83.2C491.8,105.3 494.3,102.1 493.0,114.0C363.7,101.5 443.1,126.5 181.2,114.0C179.9,109.1 182.4,106.6 181.2,83.2" stroke="#000000" fill="#ffffff" style="stroke-width: 2;"></path><text x="186.1796875" y="101.78125" style="font-size: 16px; font-family: danielbd;"><tspan x="186.1796875">importdata load = new importdata</tspan></text></g><g class="signal"><text x="90" y="144.578125" style="font-size: 16px; font-family: danielbd;"><tspan x="90">load.read(src)  // read file</tspan></text><path d="M337.1,151.6C205.1,162.2 256.8,140.9 71.4,151.6" stroke="#000000" fill="none" style="stroke-width: 2; marker-end: url(&quot;#markerArrowBlock&quot;);"></path></g><g class="signal"><text x="81.3984375" y="178.9765625" style="font-size: 16px; font-family: danielbd;"><tspan x="81.3984375">return data as double array</tspan></text><path d="M71.4,194.0C270.0,204.6 135.2,183.3 337.1,194.0" stroke="#000000" fill="none" style="stroke-width: 2; marker-end: url(&quot;#markerArrowBlock&quot;);"></path></g><g class="note"><path d="M222.7109375,213.96875C278.5,204.8 396.6,223.1 451.5,214.0C452.8,230.0 450.2,240.8 451.5,247.2C368.6,238.0 311.0,256.3 222.7,247.2C221.4,233.7 224.0,222.6 222.7,214.0" stroke="#000000" fill="#ffffff" style="stroke-width: 2;"></path><text x="227.7109375" y="233.359375" style="font-size: 16px; font-family: danielbd;"><tspan x="227.7109375">algorithm.newton lr = null</tspan></text></g><g class="signal"><text x="390.875" y="274.953125" style="font-size: 16px; font-family: danielbd;"><tspan x="390.875">lr.fit(x, y, *arg)</tspan></text><path d="M337.1,290.3C505.9,280.8 394.3,299.9 575.4,290.3" stroke="#000000" fill="none" style="stroke-width: 2; marker-end: url(&quot;#markerArrowBlock&quot;);"></path></g><g class="note"><path d="M812.8984375,310.34375C881.3,304.3 869.7,316.4 963.2,310.3C957.6,344.4 968.9,380.7 963.2,452.3C922.0,446.3 877.7,458.4 812.9,452.3C818.6,344.4 807.2,418.3 812.9,310.3" stroke="#000000" fill="#ffffff" style="stroke-width: 2;"></path><text x="817.8984375" y="328.9375" style="font-size: 16px; font-family: danielbd;"><tspan x="817.8984375">class core</tspan><tspan dy="1.2em" x="817.8984375">+sigmoid</tspan><tspan dy="1.2em" x="817.8984375">+sigmoid_prime</tspan><tspan dy="1.2em" x="817.8984375">+hessian</tspan><tspan dy="1.2em" x="817.8984375">+log_likelihood</tspan><tspan dy="1.2em" x="817.8984375">+linspace</tspan><tspan dy="1.2em" x="817.8984375">+ones</tspan></text></g><g class="note"><path d="M812.8984375,472.34375C850.1,478.5 914.3,466.1 967.8,472.3C958.3,653.2 977.3,564.0 967.8,710.3C930.6,704.1 943.0,716.5 812.9,710.3C803.4,510.4 822.4,564.3 812.9,472.3" stroke="#000000" fill="#ffffff" style="stroke-width: 2;"></path><text x="817.8984375" y="490.9375" style="font-size: 16px; font-family: danielbd;"><tspan x="817.8984375">class Matrix</tspan><tspan dy="1.2em" x="817.8984375">/plus</tspan><tspan dy="1.2em" x="817.8984375">/sub</tspan><tspan dy="1.2em" x="817.8984375">/dot</tspan><tspan dy="1.2em" x="817.8984375">/transpose</tspan><tspan dy="1.2em" x="817.8984375">/diagflat</tspan><tspan dy="1.2em" x="817.8984375">/element_dot</tspan><tspan dy="1.2em" x="817.8984375">/element_divide</tspan><tspan dy="1.2em" x="817.8984375">/inv</tspan><tspan dy="1.2em" x="817.8984375">/determinant</tspan><tspan dy="1.2em" x="817.8984375">/minor</tspan><tspan dy="1.2em" x="817.8984375">/abs</tspan></text></g><g class="signal"><text x="585.3515625" y="738.125" style="font-size: 16px; font-family: danielbd;"><tspan x="585.3515625">algorithm extends core</tspan></text><path d="M792.9,753.5C615.4,762.2 653.5,744.8 575.4,753.5" stroke="#000000" fill="none" style="stroke-width: 2; marker-end: url(&quot;#markerArrowBlock&quot;);"></path></g><g class="note"><path d="M440.6796875,773.515625C505.3,784.3 645.4,762.7 710.0,773.5C707.2,815.7 712.8,800.8 710.0,843.5C505.3,832.7 483.8,854.3 440.7,843.5C443.5,812.1 437.9,816.6 440.7,773.5" stroke="#000000" fill="#ffffff" style="stroke-width: 2;"></path><text x="446.4765625" y="791.3125" style="font-size: 16px; font-family: danielbd;"><tspan x="445.6796875">use of</tspan><tspan dy="1.2em" x="445.6796875">MAP and Newton method</tspan><tspan dy="1.2em" x="445.6796875">to estimate weight parameter</tspan></text></g><g class="signal"><text x="347.1015625" y="871.3125" style="font-size: 16px; font-family: danielbd;"><tspan x="347.1015625">return weight parameter</tspan></text><path d="M575.4,886.7C467.2,896.2 443.1,877.2 337.1,886.7" stroke="#000000" fill="none" style="stroke-width: 2; marker-end: url(&quot;#markerArrowBlock&quot;);"></path></g></svg>